<svg viewBox="0 0 820 380" xmlns="http://www.w3.org/2000/svg" font-family="monospace"><rect width="820" height="380" fill="#0d1117"/><text x="410" y="32" text-anchor="middle" fill="#58a6ff" font-size="18" font-weight="bold">PersistentVolume Lifecycle</text><rect x="30" y="60" width="140" height="60" rx="8" fill="#1f3a5f" stroke="#58a6ff" stroke-width="2"/><text x="100" y="88" text-anchor="middle" fill="#58a6ff" font-size="13" font-weight="bold">Available</text><text x="100" y="108" text-anchor="middle" fill="#8b949e" font-size="10">No PVC bound</text><line x1="170" y1="90" x2="220" y2="90" stroke="#3fb950" stroke-width="2"/><rect x="220" y="60" width="140" height="60" rx="8" fill="#1a3a2a" stroke="#3fb950" stroke-width="2"/><text x="290" y="88" text-anchor="middle" fill="#3fb950" font-size="13" font-weight="bold">Bound</text><text x="290" y="108" text-anchor="middle" fill="#8b949e" font-size="10">PVC using it</text><line x1="360" y1="90" x2="410" y2="90" stroke="#f0883e" stroke-width="2"/><rect x="410" y="60" width="140" height="60" rx="8" fill="#3a2a10" stroke="#f0883e" stroke-width="2"/><text x="480" y="88" text-anchor="middle" fill="#f0883e" font-size="13" font-weight="bold">Released</text><text x="480" y="108" text-anchor="middle" fill="#8b949e" font-size="10">Retain policy</text><rect x="600" y="60" width="140" height="60" rx="8" fill="#3a1a1a" stroke="#f85149" stroke-width="2"/><text x="670" y="88" text-anchor="middle" fill="#f85149" font-size="13" font-weight="bold">Failed</text><text x="670" y="108" text-anchor="middle" fill="#8b949e" font-size="10">Reclaim error</text><rect x="30" y="255" width="760" height="105" rx="8" fill="#161b22" stroke="#30363d"/><text x="410" y="278" text-anchor="middle" fill="#e6edf3" font-size="13" font-weight="bold">Reclaim Policies</text><rect x="50" y="290" width="210" height="55" rx="6" fill="#1a3a2a" stroke="#3fb950" stroke-width="1"/><text x="155" y="312" text-anchor="middle" fill="#3fb950" font-size="12" font-weight="bold">Retain</text><text x="155" y="332" text-anchor="middle" fill="#8b949e" font-size="10">Data preserved, manual cleanup</text><rect x="305" y="290" width="210" height="55" rx="6" fill="#3a1a1a" stroke="#f85149" stroke-width="1"/><text x="410" y="312" text-anchor="middle" fill="#f85149" font-size="12" font-weight="bold">Delete</text><text x="410" y="332" text-anchor="middle" fill="#8b949e" font-size="10">PV and storage auto-deleted</text><rect x="560" y="290" width="210" height="55" rx="6" fill="#2d2010" stroke="#f0883e" stroke-width="1"/><text x="665" y="312" text-anchor="middle" fill="#f0883e" font-size="12" font-weight="bold">Recycle (deprecated)</text><text x="665" y="332" text-anchor="middle" fill="#8b949e" font-size="10">Use StorageClass instead</text></svg>