<svg viewBox="0 0 820 420" xmlns="http://www.w3.org/2000/svg" font-family="monospace">
<rect width="820" height="420" fill="#0d1117"/>
<text x="410" y="32" text-anchor="middle" fill="#58a6ff" font-size="18" font-weight="bold">Pod Networking: CNI Data Path</text>
<rect x="20" y="55" width="370" height="170" rx="8" fill="#161b22" stroke="#58a6ff" stroke-width="2"/>
<text x="205" y="78" text-anchor="middle" fill="#58a6ff" font-size="13" font-weight="bold">Node 1 (192.168.1.10)</text>
<rect x="35" y="90" width="155" height="120" rx="6" fill="#1f3a5f" stroke="#58a6ff" stroke-width="1"/>
<text x="112" y="112" text-anchor="middle" fill="#58a6ff" font-size="11" font-weight="bold">Pod A</text>
<text x="112" y="130" text-anchor="middle" fill="#3fb950" font-size="10">10.244.1.2</text>
<text x="112" y="148" text-anchor="middle" fill="#8b949e" font-size="9">eth0 (veth pair)</text>
<text x="112" y="166" text-anchor="middle" fill="#8b949e" font-size="9">network namespace</text>
<text x="112" y="184" text-anchor="middle" fill="#d2a8ff" font-size="9">pause container</text>
<rect x="205" y="90" width="170" height="120" rx="6" fill="#1a3a2a" stroke="#3fb950" stroke-width="1"/>
<text x="290" y="112" text-anchor="middle" fill="#3fb950" font-size="11" font-weight="bold">cbr0 / cni0 bridge</text>
<text x="290" y="132" text-anchor="middle" fill="#8b949e" font-size="10">Node-level bridge</text>
<text x="290" y="150" text-anchor="middle" fill="#8b949e" font-size="10">connects all pods</text>
<text x="290" y="168" text-anchor="middle" fill="#8b949e" font-size="10">on this node</text>
<text x="290" y="186" text-anchor="middle" fill="#3fb950" font-size="10">iptables / eBPF</text>
<line x1="190" y1="150" x2="205" y2="150" stroke="#3fb950" stroke-width="2"/>
<rect x="430" y="55" width="370" height="170" rx="8" fill="#161b22" stroke="#d2a8ff" stroke-width="2"/>
<text x="615" y="78" text-anchor="middle" fill="#d2a8ff" font-size="13" font-weight="bold">Node 2 (192.168.1.11)</text>
<rect x="445" y="90" width="170" height="120" rx="6" fill="#1a3a2a" stroke="#3fb950" stroke-width="1"/>
<text x="530" y="112" text-anchor="middle" fill="#3fb950" font-size="11" font-weight="bold">cbr0 / cni0 bridge</text>
<text x="530" y="132" text-anchor="middle" fill="#8b949e" font-size="10">Node-level bridge</text>
<text x="530" y="150" text-anchor="middle" fill="#8b949e" font-size="10">receives routed</text>
<text x="530" y="168" text-anchor="middle" fill="#8b949e" font-size="10">traffic from node1</text>
<rect x="630" y="90" width="155" height="120" rx="6" fill="#1f3a5f" stroke="#d2a8ff" stroke-width="1"/>
<text x="707" y="112" text-anchor="middle" fill="#d2a8ff" font-size="11" font-weight="bold">Pod B</text>
<text x="707" y="130" text-anchor="middle" fill="#3fb950" font-size="10">10.244.2.5</text>
<text x="707" y="148" text-anchor="middle" fill="#8b949e" font-size="9">eth0 (veth pair)</text>
<text x="707" y="166" text-anchor="middle" fill="#8b949e" font-size="9">network namespace</text>
<text x="707" y="184" text-anchor="middle" fill="#d2a8ff" font-size="9">pause container</text>
<line x1="615" y1="150" x2="630" y2="150" stroke="#d2a8ff" stroke-width="2"/>
<rect x="155" y="255" width="510" height="50" rx="8" fill="#3a2010" stroke="#f0883e" stroke-width="2"/>
<text x="410" y="278" text-anchor="middle" fill="#f0883e" font-size="13" font-weight="bold">Cross-node routing (CNI-specific)</text>
<text x="410" y="296" text-anchor="middle" fill="#8b949e" font-size="10">Flannel: VXLAN overlay | Calico: BGP routes | Cilium: eBPF</text>
<line x1="375" y1="225" x2="375" y2="255" stroke="#f0883e" stroke-width="2"/>
<line x1="445" y1="225" x2="445" y2="255" stroke="#f0883e" stroke-width="2"/>
<rect x="20" y="330" width="780" height="75" rx="8" fill="#161b22" stroke="#30363d"/>
<text x="410" y="353" text-anchor="middle" fill="#e6edf3" font-size="12" font-weight="bold">CNI Plugin Comparison</text>
<text x="120" y="378" text-anchor="middle" fill="#f85149" font-size="11" font-weight="bold">Flannel</text>
<text x="120" y="394" text-anchor="middle" fill="#8b949e" font-size="10">VXLAN, no NetPol</text>
<text x="300" y="378" text-anchor="middle" fill="#3fb950" font-size="11" font-weight="bold">Calico</text>
<text x="300" y="394" text-anchor="middle" fill="#8b949e" font-size="10">BGP, full NetPol</text>
<text x="500" y="378" text-anchor="middle" fill="#58a6ff" font-size="11" font-weight="bold">Cilium</text>
<text x="500" y="394" text-anchor="middle" fill="#8b949e" font-size="10">eBPF, L7 policies</text>
<text x="680" y="378" text-anchor="middle" fill="#d2a8ff" font-size="11" font-weight="bold">Weave / Antrea</text>
<text x="680" y="394" text-anchor="middle" fill="#8b949e" font-size="10">overlay, full NetPol</text>
</svg>