<svg viewBox="0 0 820 400" xmlns="http://www.w3.org/2000/svg" font-family="monospace">
<rect width="820" height="400" fill="#0d1117"/>
<text x="410" y="30" text-anchor="middle" fill="#58a6ff" font-size="17" font-weight="bold">Pod Networking: veth pairs and cross-node communication</text>
<rect x="20" y="50" width="360" height="200" rx="8" fill="#161b22" stroke="#58a6ff" stroke-width="2"/>
<text x="200" y="73" text-anchor="middle" fill="#58a6ff" font-size="12" font-weight="bold">Node 1  (10.244.0.0/24)</text>
<rect x="35" y="85" width="140" height="75" rx="6" fill="#1f3a5f" stroke="#58a6ff" stroke-width="1"/>
<text x="105" y="108" text-anchor="middle" fill="#58a6ff" font-size="11" font-weight="bold">Pod A</text>
<text x="105" y="126" text-anchor="middle" fill="#8b949e" font-size="10">eth0: 10.244.0.5</text>
<text x="105" y="144" text-anchor="middle" fill="#8b949e" font-size="9">network namespace</text>
<line x1="175" y1="120" x2="220" y2="120" stroke="#3fb950" stroke-width="2"/>
<text x="197" y="113" text-anchor="middle" fill="#8b949e" font-size="8">veth pair</text>
<rect x="220" y="100" width="140" height="40" rx="4" fill="#1a3a2a" stroke="#3fb950" stroke-width="1"/>
<text x="290" y="118" text-anchor="middle" fill="#3fb950" font-size="10">veth0001 (host)</text>
<text x="290" y="134" text-anchor="middle" fill="#8b949e" font-size="9">bridge / route</text>
<rect x="35" y="175" width="325" height="60" rx="6" fill="#21262d" stroke="#30363d" stroke-width="1"/>
<text x="197" y="198" text-anchor="middle" fill="#8b949e" font-size="10">Node 1 eth0: 192.168.1.10</text>
<text x="197" y="218" text-anchor="middle" fill="#8b949e" font-size="9">routes: 10.244.1.0/24 via 192.168.1.11 (node2)</text>
<rect x="440" y="50" width="360" height="200" rx="8" fill="#161b22" stroke="#3fb950" stroke-width="2"/>
<text x="620" y="73" text-anchor="middle" fill="#3fb950" font-size="12" font-weight="bold">Node 2  (10.244.1.0/24)</text>
<rect x="600" y="85" width="140" height="75" rx="6" fill="#1a3a2a" stroke="#3fb950" stroke-width="1"/>
<text x="670" y="108" text-anchor="middle" fill="#3fb950" font-size="11" font-weight="bold">Pod B</text>
<text x="670" y="126" text-anchor="middle" fill="#8b949e" font-size="10">eth0: 10.244.1.3</text>
<text x="670" y="144" text-anchor="middle" fill="#8b949e" font-size="9">network namespace</text>
<line x1="600" y1="120" x2="560" y2="120" stroke="#3fb950" stroke-width="2"/>
<rect x="455" y="100" width="140" height="40" rx="4" fill="#1a3a2a" stroke="#3fb950" stroke-width="1"/>
<text x="525" y="118" text-anchor="middle" fill="#3fb950" font-size="10">veth0002 (host)</text>
<text x="525" y="134" text-anchor="middle" fill="#8b949e" font-size="9">bridge / route</text>
<rect x="455" y="175" width="325" height="60" rx="6" fill="#21262d" stroke="#30363d" stroke-width="1"/>
<text x="617" y="198" text-anchor="middle" fill="#8b949e" font-size="10">Node 2 eth0: 192.168.1.11</text>
<text x="617" y="218" text-anchor="middle" fill="#8b949e" font-size="9">routes: 10.244.0.0/24 via 192.168.1.10 (node1)</text>
<line x1="380" y1="200" x2="440" y2="200" stroke="#f0883e" stroke-width="2"/>
<text x="410" y="193" text-anchor="middle" fill="#f0883e" font-size="9">physical network</text>
<rect x="20" y="275" width="780" height="100" rx="8" fill="#161b22" stroke="#30363d"/>
<text x="410" y="298" text-anchor="middle" fill="#e6edf3" font-size="12" font-weight="bold">CNI Plugin Comparison</text>
<text x="80" y="322" text-anchor="middle" fill="#f85149" font-size="11" font-weight="bold">Flannel</text>
<text x="80" y="340" text-anchor="middle" fill="#8b949e" font-size="9">VXLAN overlay</text>
<text x="80" y="356" text-anchor="middle" fill="#f85149" font-size="9">No NetworkPolicy</text>
<text x="240" y="322" text-anchor="middle" fill="#58a6ff" font-size="11" font-weight="bold">Calico</text>
<text x="240" y="340" text-anchor="middle" fill="#8b949e" font-size="9">BGP or VXLAN</text>
<text x="240" y="356" text-anchor="middle" fill="#3fb950" font-size="9">Full NetworkPolicy</text>
<text x="410" y="322" text-anchor="middle" fill="#d2a8ff" font-size="11" font-weight="bold">Cilium</text>
<text x="410" y="340" text-anchor="middle" fill="#8b949e" font-size="9">eBPF-based</text>
<text x="410" y="356" text-anchor="middle" fill="#3fb950" font-size="9">NetworkPolicy + observability</text>
<text x="580" y="322" text-anchor="middle" fill="#3fb950" font-size="11" font-weight="bold">Weave</text>
<text x="580" y="340" text-anchor="middle" fill="#8b949e" font-size="9">Overlay</text>
<text x="580" y="356" text-anchor="middle" fill="#3fb950" font-size="9">NetworkPolicy supported</text>
<text x="730" y="322" text-anchor="middle" fill="#f0883e" font-size="11" font-weight="bold">Canal</text>
<text x="730" y="340" text-anchor="middle" fill="#8b949e" font-size="9">Flannel + Calico</text>
<text x="730" y="356" text-anchor="middle" fill="#3fb950" font-size="9">NetworkPolicy via Calico</text>
</svg>